<?xml version="1.0" standalone="no"?>
<!DOCTYPE svg PUBLIC "-//W3C//DTD SVG 20010904//EN"
 "http://www.w3.org/TR/2001/REC-SVG-20010904/DTD/svg10.dtd">
<svg version="1.0" xmlns="http://www.w3.org/2000/svg"
 width="512.000000pt" height="512.000000pt" viewBox="0 0 512.000000 512.000000"
 preserveAspectRatio="xMidYMid meet">

<g transform="translate(0.000000,512.000000) scale(0.100000,-0.100000)"
fill="#000000" stroke="none">
<path d="M3765 5109 c-507 -72 -908 -446 -1016 -948 -18 -82 -21 -143 -26
-421 l-5 -325 -56 -58 c-32 -32 -510 -508 -1063 -1058 -913 -906 -1010 -999
-1039 -999 -17 0 -64 -11 -104 -24 -202 -68 -353 -219 -421 -419 -124 -369
109 -766 495 -843 321 -64 639 125 746 442 13 40 24 87 24 106 0 30 80 113
1061 1094 l1061 1061 322 6 c273 5 335 9 417 26 507 109 877 510 949 1026 21
154 7 215 -57 241 -68 29 -78 22 -363 -262 l-266 -264 -370 0 -369 0 -98 98
-97 97 0 370 0 370 256 255 c140 140 262 267 270 282 18 35 18 62 -1 98 -30
57 -98 71 -250 49z m-621 -1971 c9 -12 16 -29 16 -38 0 -17 -1916 -1938 -1945
-1949 -49 -20 -92 37 -62 83 9 13 445 452 969 975 1016 1014 983 984 1022 929z
m-2412 -2204 c73 -20 140 -43 150 -52 15 -16 88 -263 88 -300 0 -9 -51 -67
-112 -129 -84 -84 -119 -113 -138 -113 -25 0 -222 52 -272 71 -14 6 -31 23
-37 37 -19 49 -71 247 -71 272 0 18 29 54 112 137 62 62 120 113 130 113 9 0
77 -16 150 -36z"/>
<path d="M523 778 l-71 -73 27 -99 27 -100 101 -27 101 -27 71 72 c39 39 71
78 71 86 -1 19 -46 180 -53 187 -8 7 -168 52 -187 53 -9 0 -47 -33 -87 -72z"/>
</g>
</svg>
